<svg width="104" height="104" viewBox="0 0 104 104" fill="none" xmlns="http://www.w3.org/2000/svg">
<path d="M67.8925 92.8364C65.4353 92.8273 63.0449 92.0362 61.0675 90.5776L54.0475 85.4426C53.1764 84.8012 52.123 84.4552 51.0412 84.4552C49.9595 84.4552 48.9061 84.8012 48.035 85.4426L41.015 90.5776C39.1996 91.9034 37.0382 92.6733 34.7935 92.7937C32.5488 92.9141 30.3175 92.3798 28.3708 91.2558C26.424 90.1318 24.8457 88.4666 23.8277 86.4624C22.8096 84.4582 22.3957 82.2014 22.6362 79.9664L23.5787 71.3214C23.6997 70.2471 23.473 69.1623 22.9319 68.2263C22.3908 67.2904 21.5639 66.5526 20.5725 66.1214L12.6262 62.6114C10.5645 61.7075 8.81079 60.2226 7.57936 58.3381C6.34793 56.4537 5.69214 54.2513 5.69214 52.0001C5.69214 49.749 6.34793 47.5466 7.57936 45.6622C8.81079 43.7777 10.5645 42.2928 12.6262 41.3889L20.5725 37.8789C21.5639 37.4477 22.3908 36.7099 22.9319 35.774C23.473 34.838 23.6997 33.7532 23.5787 32.6789L22.6362 24.0339C22.3957 21.7989 22.8096 19.5421 23.8277 17.5379C24.8457 15.5337 26.424 13.8684 28.3708 12.7445C30.3175 11.6205 32.5488 11.0862 34.7935 11.2066C37.0382 11.327 39.1996 12.0969 41.015 13.4226L48.035 18.5576C48.9061 19.1991 49.9595 19.5451 51.0412 19.5451C52.123 19.5451 53.1764 19.1991 54.0475 18.5576L61.0675 13.4226C62.3176 12.4974 63.7442 11.8383 65.259 11.4861C66.7739 11.1339 68.3449 11.0962 69.875 11.3751C71.438 11.6587 72.9276 12.2555 74.254 13.1296C75.5805 14.0037 76.7165 15.137 77.5937 16.4614C77.8369 16.8176 78.0068 17.2187 78.0934 17.6412C78.18 18.0638 78.1817 18.4993 78.0983 18.9225C78.0148 19.3457 77.848 19.7481 77.6075 20.1061C77.367 20.4642 77.0576 20.7708 76.6974 21.008C76.3372 21.2453 75.9333 21.4085 75.5094 21.4881C75.0855 21.5677 74.65 21.5621 74.2282 21.4717C73.8065 21.3812 73.4069 21.2077 73.0529 20.9613C72.6989 20.7149 72.3975 20.4005 72.1662 20.0364C71.774 19.447 71.2666 18.9431 70.6746 18.5549C70.0826 18.1667 69.4181 17.9023 68.7212 17.7776C68.0502 17.6539 67.3607 17.6724 66.6973 17.832C66.0339 17.9915 65.4114 18.2886 64.87 18.7039L57.85 23.8389C55.8632 25.2951 53.4639 26.0802 51.0006 26.0802C48.5373 26.0802 46.138 25.2951 44.1512 23.8389L37.1475 18.7039C36.3515 18.0995 35.3952 17.743 34.3978 17.6789C33.4005 17.6149 32.4064 17.846 31.5396 18.3435C30.6729 18.841 29.9719 19.5829 29.5242 20.4764C29.0766 21.3699 28.9021 22.3755 29.0225 23.3676L29.965 31.9964C30.2483 34.438 29.7455 36.9063 28.5298 39.0425C27.3141 41.1788 25.4488 42.8717 23.205 43.8751L15.2425 47.3851C14.34 47.7857 13.573 48.4396 13.0348 49.2674C12.4965 50.0952 12.21 51.0615 12.21 52.0489C12.21 53.0363 12.4965 54.0025 13.0348 54.8304C13.573 55.6582 14.34 56.3121 15.2425 56.7126L23.205 60.1251C25.461 61.1147 27.3417 62.7996 28.5724 64.9336C29.8032 67.0677 30.3196 69.5393 30.0462 71.9876L29.1037 80.6164C28.9833 81.6085 29.1578 82.6141 29.6055 83.5076C30.0532 84.4012 30.7541 85.143 31.6209 85.6405C32.4876 86.138 33.4818 86.3692 34.4791 86.3051C35.4764 86.241 36.4328 85.8845 37.2287 85.2801L44.2325 80.1451C46.2193 78.6889 48.6185 77.9038 51.0819 77.9038C53.5452 77.9038 55.9444 78.6889 57.9312 80.1451L64.9512 85.2801C65.7472 85.8845 66.7035 86.241 67.7009 86.3051C68.6982 86.3692 69.6923 86.138 70.5591 85.6405C71.4258 85.143 72.1268 84.4012 72.5745 83.5076C73.0221 82.6141 73.1967 81.6085 73.0762 80.6164L72.1337 71.9876C71.8502 69.5502 72.3512 67.0858 73.5639 64.9526C74.7767 62.8193 76.638 61.1283 78.8775 60.1251L86.84 56.6151C87.7425 56.2146 88.5094 55.5607 89.0477 54.7329C89.586 53.905 89.8725 52.9388 89.8725 51.9514C89.8725 50.964 89.586 49.9977 89.0477 49.1699C88.5094 48.3421 87.7425 47.6882 86.84 47.2876L82.5175 45.5001C82.1152 45.3363 81.7498 45.0935 81.4429 44.7861C81.136 44.4787 80.8939 44.1128 80.7308 43.7102C80.5678 43.3076 80.4871 42.8764 80.4935 42.4421C80.4999 42.0077 80.5933 41.5791 80.7682 41.1815C80.9431 40.7839 81.196 40.4254 81.5118 40.1271C81.8276 39.8289 82.2 39.597 82.607 39.4452C83.014 39.2933 83.4473 39.2246 83.8813 39.243C84.3152 39.2615 84.7411 39.3668 85.1337 39.5526L89.4562 41.4539C91.5179 42.3578 93.2717 43.8427 94.5031 45.7271C95.7345 47.6116 96.3903 49.814 96.3903 52.0651C96.3903 54.3163 95.7345 56.5187 94.5031 58.4031C93.2717 60.2876 91.5179 61.7725 89.4562 62.6764L81.51 66.1864C80.5187 66.6192 79.6913 67.3567 79.1478 68.2918C78.6042 69.2269 78.3729 70.3109 78.4875 71.3864L79.43 80.0314C79.7028 82.2688 79.3047 84.5368 78.2863 86.5475C77.2679 88.5583 75.6751 90.2212 73.71 91.3251C71.9364 92.329 69.9304 92.8501 67.8925 92.8364Z" fill="#39ACFF"/>
<path d="M51.415 63.3748C50.9861 63.3752 50.5615 63.2906 50.1654 63.1261C49.7694 62.9615 49.4098 62.7202 49.1075 62.4161L35.1162 48.4248C34.7675 48.135 34.4833 47.7755 34.2818 47.3692C34.0804 46.963 33.9662 46.5191 33.9465 46.0661C33.9269 45.6131 34.0023 45.161 34.1678 44.7389C34.3333 44.3167 34.5853 43.9339 34.9077 43.615C35.23 43.2961 35.6155 43.0482 36.0394 42.8871C36.4632 42.7261 36.9161 42.6556 37.3689 42.6801C37.8216 42.7045 38.2643 42.8235 38.6683 43.0292C39.0724 43.235 39.4289 43.523 39.715 43.8748L51.415 55.5748L92.755 14.1698C93.3742 13.6107 94.1847 13.3112 95.0187 13.3332C95.8527 13.3552 96.6463 13.697 97.2352 14.288C97.8241 14.879 98.1631 15.6738 98.1822 16.5078C98.2012 17.3419 97.8988 18.1514 97.3375 18.7686L53.7062 62.3998C53.4072 62.705 53.0509 62.9482 52.6577 63.1155C52.2645 63.2828 51.8422 63.3709 51.415 63.3748Z" fill="#FFB300"/>
</svg>
