<svg width="50" height="34" viewBox="0 0 50 34" fill="none" xmlns="http://www.w3.org/2000/svg">
<path d="M19.7475 33.7212C19.3089 33.7324 18.8726 33.6547 18.4649 33.4927C18.0571 33.3307 17.6864 33.0878 17.375 32.7787L1.93754 17.3412C1.32771 16.7314 0.985107 15.9043 0.985107 15.0419C0.985107 14.1794 1.32771 13.3523 1.93754 12.7425C2.54737 12.1326 3.37448 11.79 4.23692 11.79C5.09935 11.79 5.92646 12.1326 6.53629 12.7425L19.6825 25.8887L44.3988 1.22123C44.7008 0.919274 45.0592 0.679745 45.4538 0.516326C45.8483 0.352908 46.2711 0.268799 46.6982 0.268799C47.1252 0.268799 47.548 0.352908 47.9426 0.516326C48.3371 0.679745 48.6956 0.919274 48.9975 1.22123C49.2995 1.52319 49.539 1.88166 49.7024 2.27619C49.8659 2.67072 49.95 3.09357 49.95 3.52061C49.95 3.94764 49.8659 4.37049 49.7024 4.76502C49.539 5.15955 49.2995 5.51802 48.9975 5.81998L22.0388 32.7787C21.4294 33.3831 20.6058 33.7219 19.7475 33.7212Z" fill="#FFB300"/>
</svg>
