<svg width="81" height="80" viewBox="0 0 81 80" fill="none" xmlns="http://www.w3.org/2000/svg">
<path d="M37.865 75.992C58.7313 75.992 75.6468 59.0765 75.6468 38.2102C75.6468 17.3439 58.7313 0.428467 37.865 0.428467C16.9987 0.428467 0.083252 17.3439 0.083252 38.2102C0.083252 59.0765 16.9987 75.992 37.865 75.992Z" fill="#39ACFF"/>
<path d="M37.8651 67.8959C54.2601 67.8959 67.5508 54.6052 67.5508 38.2102C67.5508 21.8153 54.2601 8.52454 37.8651 8.52454C21.4702 8.52454 8.17944 21.8153 8.17944 38.2102C8.17944 54.6052 21.4702 67.8959 37.8651 67.8959Z" fill="#E6F4FF"/>
<path d="M35.1664 13.9219H40.5638V38.2102H35.1664V13.9219Z" fill="black"/>
<path d="M53.1251 48.882L48.5459 53.4611L35.5717 40.4869L40.1508 35.9077L53.1251 48.882Z" fill="black"/>
<path d="M37.865 43.6077C40.8459 43.6077 43.2624 41.1912 43.2624 38.2103C43.2624 35.2294 40.8459 32.8129 37.865 32.8129C34.8841 32.8129 32.4677 35.2294 32.4677 38.2103C32.4677 41.1912 34.8841 43.6077 37.865 43.6077Z" fill="black"/>
<path d="M37.8651 40.909C39.3555 40.909 40.5638 39.7007 40.5638 38.2103C40.5638 36.7198 39.3555 35.5116 37.8651 35.5116C36.3746 35.5116 35.1664 36.7198 35.1664 38.2103C35.1664 39.7007 36.3746 40.909 37.8651 40.909Z" fill="#808080"/>
<path d="M53.612 77.5439L65.3469 57.897C65.9989 56.8372 67.5473 56.8372 68.1177 57.897L79.8527 77.5439C80.5046 78.6037 79.6897 79.9896 78.4673 79.9896H54.9973C53.775 79.9896 52.96 78.6037 53.612 77.5439Z" fill="#FFC107"/>
<path d="M64.8251 76.1219C64.8251 75.9453 64.8251 75.7687 64.9481 75.5921C65.0712 75.4155 65.1942 75.3272 65.3173 75.1506C65.4403 74.974 65.6864 74.974 65.9325 74.8857C66.1786 74.7974 66.4247 74.7974 66.6708 74.7974C66.9169 74.7974 67.2861 74.7974 67.5322 74.8857C67.7783 74.974 68.0244 75.0623 68.1474 75.1506C68.2705 75.2389 68.3935 75.4155 68.5166 75.5921C68.6396 75.7687 68.6396 75.9453 68.6396 76.1219C68.6396 76.2985 68.6396 76.4751 68.5166 76.6517C68.3935 76.8283 68.2705 76.9166 68.1474 77.0932C68.0244 77.2698 67.7783 77.2698 67.5322 77.3581C67.2861 77.4464 67.04 77.4464 66.6708 77.4464C66.3017 77.4464 66.0556 77.4464 65.9325 77.3581C65.8095 77.2698 65.4403 77.1815 65.3173 77.0932C65.1942 77.0049 65.0712 76.8283 64.9481 76.6517C64.8251 76.4751 64.8251 76.2985 64.8251 76.1219ZM68.2705 73.3846H65.4403L64.9481 64.7312H68.6396L68.2705 73.3846Z" fill="black"/>
</svg>
