<svg width="20" height="34" viewBox="0 0 20 34" fill="none" xmlns="http://www.w3.org/2000/svg">
<path fill-rule="evenodd" clip-rule="evenodd" d="M20 33.6665V30.3332H18.3333V25.3332C18.3333 20.7308 14.6024 16.9998 10 16.9998C14.6024 16.9998 18.3333 13.2688 18.3333 8.6665V3.6665H20V0.333168H0V3.6665H1.66667V8.6665C1.66667 13.2688 5.39767 16.9998 10 16.9998C5.39767 16.9998 1.66667 20.7308 1.66667 25.3332V30.3332H0V33.6665H20ZM15 30.3332H5L5 25.3332C5 22.5718 7.2385 20.3332 10 20.3332C12.7615 20.3332 15 22.5718 15 25.3332V30.3332ZM15 8.6665V3.6665L5 3.6665V8.6665C5 11.428 7.2385 13.6665 10 13.6665C12.7615 13.6665 15 11.428 15 8.6665Z" fill="#FF8C39"/>
</svg>
